M48
;FILE_FORMAT=2:4
INCH
;TYPE=PLATED
T01C0.016
T02C0.030
T03C0.035
T04C0.043
T05C0.051
%
T01
X+034606Y+023366
X+035650Y+024429
X+034154Y+028091
X+036339Y+023091
X+038268Y+025217
X+039508Y+026476
X+042480Y+025413
X+043465Y+027500
X+045787Y+026673
Y+026280
Y+025886
Y+025492
Y+025098
X+046181Y+026673
Y+026280
Y+025886
Y+025492
Y+025098
Y+027461
X+045787Y+027854
X+046181
X+045787Y+027461
X+046181Y+027067
X+045787
X+035827Y+022835
X+038976Y+027520
X+032874Y+027165
T02
X+038346Y+023858
X+032854Y+025768
T03
X+032028Y+025173
X+032008Y+028740
X+033874Y+022992
X+040075
X+040079Y+025650
Y+024650
Y+028878
X+042677Y+022992
X+043677
X+048878
X+049878
X+049882Y+025650
Y+024650
Y+028878
X+032028Y+024173
X+037126Y+029902
X+038268Y+029882
X+040079Y+029878
X+049882
X+032874Y+022992
X+039075
X+041831Y+025177
X+041811Y+028740
X+034114Y+029902
X+035118
X+032106
X+036122
X+033110
X+041831Y+024177
X+048071Y+029882
T04
X+046043Y+023957
T05
X+046047Y+023081
X+046004Y+028602
X+049787Y+026437
X+046047Y+029774
X+049098Y+029783
X+041732Y+023041
Y+029793
X+041894Y+027274
T00
M30
